<svg width="256" height="256" viewBox="0 0 256 256" fill="none" xmlns="http://www.w3.org/2000/svg">
<path fill-rule="evenodd" clip-rule="evenodd" d="M128 44.5138C105.819 44.5138 84.6584 53.2809 68.9696 68.9696C53.284 84.6552 44.5138 105.907 44.5138 128C44.5138 142.656 48.3852 156.987 55.7303 169.739C63.0687 182.387 73.6123 192.931 86.2605 200.269C99.0132 207.615 113.344 211.486 128 211.486C142.672 211.486 157.089 207.607 169.729 200.276C182.382 192.937 192.929 182.391 200.269 169.74C207.615 156.987 211.486 142.656 211.486 128C211.486 105.907 202.716 84.6552 187.03 68.9696C171.345 53.284 150.093 44.5138 128 44.5138ZM57.2926 57.2926C76.0771 38.5082 101.437 28 128 28C154.466 28 179.92 38.5051 198.707 57.2926C217.495 76.0802 228 101.534 228 128C228 145.589 223.348 162.763 214.572 177.994L214.566 178.004L214.56 178.014C205.777 193.159 193.159 205.777 178.014 214.56C162.853 223.354 145.577 228 128 228C110.411 228 93.2375 223.348 78.0064 214.572L77.9961 214.566L77.9858 214.56C62.8412 205.777 50.2234 193.159 41.4395 178.014L41.4335 178.004L41.4276 177.994C32.6521 162.763 28 145.589 28 128C28 101.534 38.5051 76.0802 57.2926 57.2926Z" fill="white"/>
<path fill-rule="evenodd" clip-rule="evenodd" d="M94.6388 93.6288C89.8314 93.6288 84.5395 96.0804 79.8033 102.075L79.7879 102.094L79.7723 102.114C75.0009 108.078 71.4862 116.884 70.4155 127.014C69.9362 131.549 65.8714 134.837 61.3365 134.358C56.8016 133.879 53.5139 129.814 53.9932 125.279C55.3309 112.622 59.7802 100.678 66.8616 91.8171C73.9857 82.8102 83.7002 77.1151 94.6388 77.1151C105.478 77.1151 115.295 82.8043 122.431 91.8367C129.477 100.754 133.943 112.583 135.284 125.279C135.764 129.814 132.476 133.879 127.941 134.358C123.406 134.837 119.341 131.549 118.862 127.014C117.794 116.914 114.29 108.169 109.474 102.075C104.749 96.0945 99.3684 93.6288 94.6388 93.6288Z" fill="white"/>
<path fill-rule="evenodd" clip-rule="evenodd" d="M126.206 119.789C130.741 119.31 134.805 122.597 135.285 127.132C136.352 137.233 139.857 145.977 144.672 152.072C149.397 158.052 154.778 160.518 159.508 160.518C164.315 160.518 169.607 158.066 174.343 152.072L174.359 152.052L174.374 152.033C179.146 146.069 182.66 137.263 183.731 127.132C184.21 122.597 188.275 119.31 192.81 119.789C197.345 120.268 200.633 124.333 200.153 128.868C198.816 141.525 194.366 153.469 187.285 162.33C180.16 171.337 170.446 177.032 159.508 177.032C148.669 177.032 138.852 171.342 131.715 162.31C124.669 153.392 120.204 141.564 118.862 128.868C118.383 124.333 121.671 120.268 126.206 119.789Z" fill="white"/>
</svg>
