<svg width="256" height="256" viewBox="0 0 256 256" fill="none" xmlns="http://www.w3.org/2000/svg">
<path d="M28 44.6667C28 35.4619 35.4619 28 44.6667 28V28C53.8714 28 61.3333 35.4619 61.3333 44.6667V211.333C61.3333 220.538 53.8714 228 44.6667 228V228C35.4619 228 28 220.538 28 211.333V44.6667Z" fill="black"/>
<path d="M94.6665 48C94.6665 36.9543 103.621 28 114.667 28H208C219.046 28 228 36.9543 228 48V108C228 119.046 219.046 128 208 128H114.666C103.621 128 94.6665 119.046 94.6665 108V48Z" fill="black"/>
<path d="M94.6665 181.333C94.6665 170.287 103.621 161.333 114.667 161.333H178.371C189.417 161.333 198.371 170.287 198.371 181.333V208C198.371 219.046 189.417 228 178.371 228H114.666C103.621 228 94.6665 219.046 94.6665 208V181.333Z" fill="black"/>
</svg>
