<svg width="256" height="256" viewBox="0 0 256 256" fill="none" xmlns="http://www.w3.org/2000/svg">
<path fill-rule="evenodd" clip-rule="evenodd" d="M212.838 99.3406L227.841 162.008C228.466 164.664 227.216 167.321 224.637 168.571L105.867 227.879C105.789 227.879 105.71 227.957 105.632 227.957L147.28 139.66L212.838 99.3406ZM124.698 28.0781L188.772 41.9087C190.803 42.3775 192.522 43.784 193.304 45.7375L209.947 90.5109L144.233 130.909L108.055 96.6839L124.698 28.0781ZM96.9588 224.597L40.9334 140.598L102.272 103.716L137.903 137.55L96.9588 224.597ZM36.9484 132.471L28.1187 90.3546C27.6499 88.0886 28.5875 85.6663 30.6191 84.338L115.009 28C115.009 28 115.009 28 115.087 28L98.8342 95.2774L36.9484 132.471Z" fill="black"/>
</svg>
