<svg width="256" height="256" viewBox="0 0 256 256" fill="none" xmlns="http://www.w3.org/2000/svg">
<path d="M97.19 120.556V43.6692L36.6381 36.0574C34.4999 35.8009 32.2763 36.3995 30.6513 37.939C28.9408 39.3929 28 41.5311 28 43.6692V120.556H97.19Z" fill="black"/>
<path d="M35.6118 220.521C35.9539 220.521 36.2104 220.521 36.5525 220.435L97.1044 212.909V135.936H28V212.824C28 215.047 28.9408 217.185 30.6513 218.554C32.0197 219.751 33.8157 220.435 35.6118 220.521Z" fill="black"/>
<path d="M228 120.212V66.4166C228 64.5351 227.316 62.739 226.033 61.3706C224.75 60.0022 223.04 59.0615 221.243 58.8049L181.902 52.9892V120.212H228Z" fill="black"/>
<path d="M166.741 67.2039V51.7238L112.946 45.9936V120.914H166.741V67.2039Z" fill="black"/>
<path d="M228 189.732V135.936H181.902V203.245L221.243 197.343C223.125 197.087 224.836 196.232 226.033 194.778C227.316 193.409 228 191.613 228 189.732Z" fill="black"/>
<path d="M166.741 189.732V135.936H112.946V210.942L166.741 205.212V189.732Z" fill="black"/>
</svg>
