<svg width="256" height="256" viewBox="0 0 256 256" fill="none" xmlns="http://www.w3.org/2000/svg">
<path d="M92.0374 174.818L82.666 178.254C83.2908 180.05 84.0717 181.846 84.8527 183.486C85.4774 184.892 86.2584 186.298 86.8831 187.469L95.7078 182.705C94.6926 181.221 93.2869 178.02 92.0374 174.818Z" fill="white"/>
<path d="M102.19 193.56L94.3804 199.73C95.1613 200.745 95.7861 201.526 96.567 202.307V202.541V202.776C98.1289 204.572 100.003 206.368 101.799 208.164L108.594 200.745C106.563 198.793 104.376 196.137 102.19 193.56Z" fill="white"/>
<path d="M117.731 206.836L112.342 215.036C115.778 217.223 119.137 219.253 122.963 220.815L127.18 211.6C123.744 210.429 120.776 208.633 117.731 206.836Z" fill="white"/>
<path d="M136.005 215.427L133.428 225.032C137.254 226.048 141.237 226.829 145.22 227.219L146.235 217.223C142.643 216.989 139.207 216.208 136.005 215.427Z" fill="white"/>
<path d="M167.086 216.208C163.65 216.989 160.292 217.379 156.856 217.613L157.481 227.61C161.464 227.375 165.446 226.829 169.273 226.048L167.086 216.208Z" fill="white"/>
<path d="M186.532 208.398C183.564 210.194 180.363 211.834 177.161 213.006L180.753 222.221C182.159 221.596 183.33 221.206 184.736 220.425C186.766 219.41 188.719 218.394 190.749 217.223L186.532 208.398Z" fill="white"/>
<path d="M202.697 195.122C200.354 197.777 197.855 200.276 195.122 202.385L201.37 210.038C202.541 209.023 203.556 208.32 204.65 207.149C206.29 205.587 207.851 204.025 209.413 202.307L202.697 195.122Z" fill="white"/>
<path d="M213.162 177.941C211.757 181.143 210.195 184.111 208.398 187.157L216.989 192.389C219.019 189.187 220.581 185.985 221.987 182.627C221.987 182.393 222.221 182.393 222.221 182.237V182.002L213.162 177.941Z" fill="white"/>
<path d="M217.769 157.637C217.535 161.073 216.988 164.665 216.208 167.867L225.969 170.288C226.204 169.898 226.204 169.507 226.204 169.117V168.882V168.648C226.594 166.618 226.828 164.822 226.985 162.869C226.985 162.088 227.219 161.463 227.219 160.683L217.769 157.637Z" fill="white"/>
<path d="M225.813 134.208L216.208 136.629C216.988 140.066 217.613 143.424 218.004 146.86L228 146.079C228 145.298 227.766 144.517 227.766 143.658C227.531 141.471 227.141 139.285 226.594 137.098C226.047 134.599 226.047 134.365 225.813 134.208Z" fill="white"/>
<path d="M215.973 112.342L207.617 117.574C209.413 120.542 211.053 123.588 212.381 126.79L221.596 122.807C220.425 119.995 219.019 117.184 217.379 114.607C216.754 113.513 216.364 112.889 215.973 112.342Z" fill="white"/>
<path d="M200.745 94.3803L194.341 102.19C196.918 104.376 199.574 106.797 201.916 109.374L209.335 102.815L209.101 102.58V102.346V102.112L208.867 101.877C204.572 97.8165 202.776 96.0203 200.745 94.3803Z" fill="white"/>
<path d="M179.972 82.6661L176.379 92.0375C179.581 93.2089 182.783 94.8489 185.751 96.4108L190.749 87.8204C187.313 85.868 183.72 84.228 179.972 82.6661Z" fill="white"/>
<path d="M174.349 117.887C175.521 112.654 176.145 107.266 176.145 101.721V100.94L153.342 77.9805C160.761 77.9805 167.945 79.1519 174.74 81.1824C165.368 50.335 136.786 28 102.971 28C61.5806 28 28 61.5806 28 102.971C28 136.708 50.4131 165.29 81.1824 174.661C79.1519 167.867 77.9805 160.839 77.9805 153.498L101.175 176.692C106.954 176.692 112.576 176.067 117.965 174.661L79.7767 136.473C80.5576 132.647 81.8071 129.054 83.2128 125.696L128.976 171.46C133.349 169.663 137.567 167.633 141.393 165.056L89.4604 113.123C91.2565 110.312 93.287 107.5 95.4736 104.923L149.671 159.121C153.107 156.309 156.231 153.107 159.043 149.749L104.767 95.5517C107.344 93.3651 110.155 91.3346 112.967 89.5385L164.9 141.471C167.321 137.488 169.507 133.271 171.069 128.898L125.54 83.1347C128.976 81.729 132.569 80.7138 136.317 79.6986L174.349 117.887Z" fill="white"/>
</svg>
