<svg width="256" height="256" viewBox="0 0 256 256" fill="none" xmlns="http://www.w3.org/2000/svg">
<path d="M181.843 94.2965C180.025 91.6066 177.637 89.3469 174.851 87.6768L138.981 66.9725C135.569 65.0039 131.7 63.967 127.761 63.967C123.822 63.967 119.952 65.0039 116.541 66.9725L80.6761 87.6787C77.8885 89.3486 75.5028 91.6084 73.6846 94.3004L127.759 125.479L181.843 94.2965Z" fill="white"/>
<path d="M130.565 130.343V191.309V191.307C133.52 190.999 136.381 190.101 138.981 188.668L174.846 167.962C178.259 165.991 181.091 163.158 183.06 159.747C185.031 156.336 186.068 152.464 186.068 148.525V107.112C186.013 104.422 185.47 101.762 184.463 99.2656L130.565 130.343Z" fill="white"/>
<path d="M71.0627 99.264C70.0558 101.76 69.5129 104.42 69.4585 107.11V148.524C69.4585 152.463 70.4954 156.334 72.4659 159.746C74.4345 163.157 77.2671 165.989 80.6802 167.96L116.545 188.666C119.145 190.099 122.006 190.997 124.961 191.305V130.339L71.0627 99.264Z" fill="white"/>
<path d="M177.654 172.819L141.791 193.525C133.107 198.52 122.422 198.52 113.738 193.525L77.8752 172.819C74.5128 170.794 71.618 168.078 69.3829 164.853L42.7129 180.134C44.4598 182.546 46.6726 184.582 49.2216 186.122L116.545 224.993C119.956 226.963 123.826 228 127.764 228C131.703 228 135.573 226.963 138.984 224.993L206.307 186.122C208.856 184.584 211.071 182.546 212.816 180.134L186.146 164.845C183.911 168.074 181.016 170.792 177.654 172.819V172.819Z" fill="white"/>
<path d="M63.8491 148.52V107.116C63.8679 97.0981 69.2085 87.845 77.8754 82.8184L113.738 62.1088C117.195 60.1947 121.021 59.0414 124.96 58.7258V28C122.005 28.3099 119.144 29.2097 116.545 30.6467L49.2217 69.5113C45.8105 71.48 42.9761 74.3126 41.0074 77.7257C39.0369 81.137 38 85.0067 38 88.9456V166.684C38.0582 169.643 38.7063 172.562 39.9085 175.267L66.5598 159.997C64.8448 156.41 63.9206 152.495 63.8492 148.518L63.8491 148.52Z" fill="white"/>
<path d="M217.528 88.9489C217.528 85.0099 216.491 81.1404 214.521 77.7291C212.552 74.3159 209.718 71.4834 206.306 69.5147L138.983 30.6501C136.384 29.2149 133.523 28.317 130.568 28.009V58.729C134.507 59.0445 138.333 60.1979 141.79 62.112L177.655 82.8182H177.653C186.32 87.8448 191.66 97.0979 191.679 107.116V148.52C191.608 152.495 190.683 156.41 188.968 159.997L215.62 175.273C216.822 172.568 217.47 169.649 217.528 166.69L217.528 88.9489Z" fill="white"/>
</svg>
