<svg width="256" height="256" viewBox="0 0 256 256" fill="none" xmlns="http://www.w3.org/2000/svg">
<path d="M38.3895 194.38H183.992C189.718 194.38 194.381 189.717 194.381 183.991V38.3885C194.381 32.6626 189.718 28 183.992 28H38.3895C32.6636 28 28.001 32.6626 28.001 38.3885V183.991C27.9192 189.717 32.6636 194.38 38.3895 194.38Z" fill="black"/>
<path d="M217.61 57.4477H207.222C204.931 57.4477 203.05 59.3291 203.05 61.6194V188.49C203.05 196.506 196.506 203.05 188.49 203.05H61.619C59.3286 203.05 57.4473 204.932 57.4473 207.222V217.61C57.4473 223.336 62.1098 227.999 67.8358 227.999H217.61C223.336 227.999 227.999 223.336 227.999 217.61V67.918C228.08 62.1102 223.336 57.4477 217.61 57.4477Z" fill="black"/>
</svg>
