<svg width="256" height="256" viewBox="0 0 256 256" fill="none" xmlns="http://www.w3.org/2000/svg">
<path d="M193.509 44.3871H159.877V64.3636H193.509C197.333 64.3636 201.001 65.8463 203.732 68.5775C206.463 71.3086 207.946 74.9762 207.946 78.7999V168.773L159.877 120.704V148.952L202.249 191.246C199.752 193.197 196.709 194.211 193.587 194.211H159.955V214.188H193.587C202.717 214.188 211.457 210.52 217.934 204.122C224.411 197.645 228 188.905 228 179.775V78.7999C228 69.6699 224.333 60.9302 217.934 54.4534C211.379 48.0546 202.639 44.3871 193.509 44.3871Z" fill="black"/>
<path d="M130.692 44.387H62.4128C53.2829 44.387 44.5431 48.0546 38.0663 54.5314C31.6676 60.9302 28 69.6699 28 78.7998V179.775C28 188.905 31.6676 197.645 38.0663 204.122C44.5431 210.599 53.2829 214.188 62.4128 214.188H130.692V227.766H150.669V28H130.692V44.387ZM68.0312 93.3141C68.0312 90.2708 69.2017 87.3835 71.3086 85.2766C73.4155 83.1697 76.3028 81.9212 79.3461 81.9212C82.3894 81.9212 85.2766 83.0917 87.3835 85.1986C89.4904 87.3055 90.739 90.1927 90.739 93.2361C90.739 96.2794 89.5685 99.0886 87.4616 101.274C85.3547 103.38 82.4674 104.629 79.4241 104.629C76.3808 104.629 73.4936 103.458 71.3867 101.352C69.2017 99.2446 68.0312 96.3574 68.0312 93.3141ZM130.692 194.211H79.3461L130.692 142.865V194.211Z" fill="black"/>
</svg>
