<svg width="256" height="256" viewBox="0 0 256 256" fill="none" xmlns="http://www.w3.org/2000/svg">
<path d="M47.9912 194.392H152.458C157.766 194.392 162.808 192.269 166.611 188.554C170.326 184.839 172.449 179.709 172.449 174.401V164.759L172.626 164.848L206.947 181.743C211.989 184.22 217.297 184.22 221.454 181.655C225.612 179.089 228 174.313 228 168.74V86.7408C228 81.0796 225.612 76.3914 221.454 73.8262C217.297 71.2609 211.989 71.1725 206.947 73.7377L172.538 90.7214V80.9912C172.538 75.6838 170.415 70.6418 166.7 66.8381C162.985 63.123 157.854 61 152.547 61H47.9912C42.6838 61 37.6418 63.123 33.8381 66.8381C30.123 70.5533 28 75.6838 28 80.9912V174.49C28 179.797 30.123 184.839 33.8381 188.643C37.6418 192.269 42.6838 194.392 47.9912 194.392ZM42.5069 80.9912C42.5069 79.5758 43.1261 78.1606 44.0991 77.0991C45.0721 76.0376 46.4874 75.5069 47.9912 75.5069H152.458C153.874 75.5069 155.289 76.1261 156.35 77.0991C157.412 78.1606 157.942 79.4874 157.942 80.9912V113.985L168.38 108.855L177.314 104.432L213.228 86.7408L213.405 86.6524V86.8293V168.74V168.917L213.316 168.828L178.995 151.933L173.776 149.368L168.38 146.714L157.942 141.584V174.578C157.942 175.993 157.323 177.409 156.35 178.47C155.289 179.532 153.962 180.062 152.458 180.062H47.9912C46.5758 180.062 45.1605 179.443 44.0991 178.47C43.0376 177.409 42.5069 176.082 42.5069 174.578V80.9912Z" fill="black"/>
</svg>
