<svg width="256" height="256" viewBox="0 0 256 256" fill="none" xmlns="http://www.w3.org/2000/svg">
<path d="M199.481 28H56.6105C49.0478 28 41.7585 31.0068 36.3827 36.3827C31.0068 41.7585 28 49.0478 28 56.6105V199.39C28 206.952 31.0068 214.241 36.3827 219.617C41.7585 224.993 49.0478 228 56.6105 228H199.39C206.952 228 214.241 224.993 219.617 219.617C224.993 214.241 228 206.952 228 199.39V56.5194C228 48.9567 224.993 41.6674 219.617 36.2916C214.333 31.0068 207.043 28 199.481 28ZM206.588 142.26H183.353L163.49 208.592C163.034 210.05 162.123 211.326 160.939 212.237C159.663 213.148 158.205 213.604 156.656 213.604H156.109C154.469 213.513 152.92 212.784 151.736 211.69C150.551 210.597 149.822 209.048 149.549 207.499L133.513 89.8679L113.649 179.435C113.194 181.531 111.827 183.353 109.913 184.264C108 185.267 105.722 185.267 103.809 184.446C101.804 183.535 100.346 181.895 99.7995 179.8L83.9453 121.85L77.5672 137.795C77.0205 139.162 76.1093 140.255 74.9248 141.075C73.7403 141.895 72.3736 142.26 70.9157 142.26H49.5034C46.9522 142.26 44.5831 140.893 43.3075 138.706C42.0319 136.519 42.0319 133.786 43.3075 131.599C44.5831 129.412 46.9522 128.046 49.5034 128.046H66.0866L78.5695 96.7927C79.2984 94.9704 80.8474 93.4214 82.6697 92.7836C84.5831 92.0547 86.6788 92.2369 88.41 93.1481C90.2323 94.0592 91.508 95.6993 92.0547 97.6127L105.904 148.273L128.228 47.9544C128.592 46.3144 129.503 44.8565 130.779 43.7631C132.146 42.7608 133.786 42.2141 135.426 42.3052C137.066 42.3964 138.706 43.0342 139.891 44.1276C141.166 45.221 141.895 46.7699 142.169 48.41L159.116 172.875L171.052 133.057C171.508 131.599 172.419 130.323 173.604 129.321C174.879 128.41 176.337 127.863 177.886 127.863H206.405C208.957 127.863 211.326 129.23 212.601 131.417C213.877 133.604 213.877 136.337 212.601 138.524C211.508 140.893 209.139 142.26 206.588 142.26Z" fill="black"/>
</svg>
