<?xml version="1.0" encoding="utf-8"?>
<!-- Generator: Adobe Illustrator 26.0.1, SVG Export Plug-In . SVG Version: 6.00 Build 0)  -->
<svg version="1.1" id="Calque_1" xmlns="http://www.w3.org/2000/svg" xmlns:xlink="http://www.w3.org/1999/xlink" x="0px" y="0px"
	 viewBox="0 0 256 256" style="enable-background:new 0 0 256 256;" xml:space="preserve">
<style type="text/css">
	.st0{fill:#FFFFFF;}
</style>
<path class="st0" d="M124.3,94.6l-7.9,4.3l7.9,4.3c1.6,0.9,2.8,2.3,3.3,4c0.5,1.7,0.3,3.6-0.5,5.2c-0.9,1.6-2.3,2.7-4.1,3.3
	c-1.7,0.5-3.6,0.3-5.2-0.6l-8.8-4.8V148l15.2,8.4c1.6,0.9,2.8,2.3,3.3,4c0.5,1.7,0.3,3.6-0.5,5.2c-0.9,1.6-2.3,2.7-4.1,3.3
	c-1.7,0.5-3.6,0.3-5.2-0.6L99,157.9c-1.1-0.5-2-1.4-2.6-2.5c-0.6-1-0.9-2.3-0.9-3.4v-53c0-2.3,1.2-4.6,3.3-5.8
	c0.2-0.1,0.4-0.2,0.6-0.2l18.4-10.1c1.6-0.9,3.4-1.1,5.2-0.6c1.7,0.5,3.2,1.6,4.1,3.3c0.9,1.6,1.1,3.4,0.5,5.2
	C127.1,92.4,125.9,93.8,124.3,94.6z M200.3,100v52c0,1.2-0.3,2.4-0.9,3.4c-0.6,1-1.5,1.9-2.6,2.5l-42,23v18.5c0,7.1-2.8,14-7.9,19.1
	c-5.1,5.1-11.9,7.9-19.1,7.9H55c-7.1,0-14-2.8-19.1-7.9c-5.1-5.1-7.9-12-7.9-19.1V56c0-7.1,2.8-14,7.9-19.1C41,31.9,47.8,29,55,29
	h72.8c7.1,0,14,2.8,19.1,7.9c5.1,5.1,7.9,11.9,7.9,19.1v14l42.2,23c1.2,0.7,2.2,1.7,2.8,3C200.3,97.2,200.5,98.6,200.3,100z
	 M154.7,85.3v27.1l24.8-13.6L154.7,85.3z M141.3,199.4v-21.6c0-0.3,0-0.5,0-0.9v-52.2c0-0.3,0-0.5,0-0.9V56c0-3.6-1.4-7-3.9-9.5
	s-5.9-3.9-9.5-3.9H55c-3.6,0-7,1.4-9.5,3.9s-4,5.9-4,9.5v143.4c0,3.6,1.4,7,4,9.5c2.5,2.5,5.9,3.9,9.5,3.9h72.8c3.6,0,7-1.4,9.5-3.9
	C139.9,206.3,141.3,202.9,141.3,199.4z M186.7,110.2l-32,17.5v37.7l32-17.5V110.2z M96.4,192.8h-10c-2.4,0-4.6,1.2-5.9,3.4
	c-1.2,2.1-1.2,4.7,0,6.7c1.2,2.1,3.4,3.4,5.9,3.4h10c2.4,0,4.6-1.2,5.9-3.4c1.2-2.1,1.2-4.7,0-6.7C101,194.1,98.8,192.8,96.4,192.8z
	 M184.1,60.1c0.5,0.2,1.2,0.2,1.7,0.2c1.5,0,2.9-0.5,4.1-1.4c1.2-0.9,2-2.2,2.4-3.6l3.2-12c0.6-2.3-0.1-4.8-1.8-6.5
	c-1.7-1.7-4.2-2.3-6.5-1.7c-2.3,0.6-4.1,2.4-4.8,4.8l-3.2,12c-0.5,1.7-0.2,3.6,0.7,5.1C180.9,58.5,182.4,59.6,184.1,60.1z
	 M227.5,66.3c-0.7-1.6-2-3-3.7-3.6c-1.6-0.6-3.5-0.6-5.2,0.1l-11.4,4.9c-1.9,0.9-3.4,2.5-3.8,4.5c-0.5,2-0.1,4.1,1.2,5.8
	c1.2,1.6,3.3,2.6,5.3,2.6c0.9,0,1.9-0.2,2.7-0.5l11.4-4.9c1.6-0.7,2.9-2,3.6-3.7C228.2,69.9,228.2,68,227.5,66.3z"/>
</svg>
