<svg width="256" height="256" viewBox="0 0 256 256" fill="none" xmlns="http://www.w3.org/2000/svg">
<path d="M200.638 28H55.1808C50.3594 28 45.7343 29.9161 42.3252 33.3252C38.9146 36.7358 37 41.3609 37 46.1824V82.5456C37 89.0412 40.4654 95.0435 46.0904 98.2913C51.7156 101.541 58.6464 101.541 64.2728 98.2913C69.898 95.0436 73.3632 89.0412 73.3632 82.5456V64.3648H109.726V191.635H91.5456C85.05 191.635 79.0476 195.101 75.7998 200.727C72.5505 206.352 72.5505 213.283 75.7998 218.908C79.0476 224.534 85.05 228 91.5456 228H164.274H164.273C170.768 228 176.771 224.535 180.019 218.908C183.268 213.283 183.268 206.352 180.019 200.727C176.771 195.101 170.768 191.635 164.273 191.635H146.092V64.3648H182.455V82.5456C182.455 89.0412 185.921 95.0435 191.546 98.2913C197.172 101.541 204.103 101.541 209.728 98.2913C215.353 95.0436 218.818 89.0412 218.818 82.5456V46.1824C218.818 41.3609 216.904 36.7359 213.493 33.3252C210.084 29.9161 205.459 28 200.638 28H200.638Z" fill="black"/>
</svg>
