<svg width="256" height="256" viewBox="0 0 256 256" fill="none" xmlns="http://www.w3.org/2000/svg">
<path d="M128.313 75.6153C133.16 75.6153 137.148 71.6278 137.148 66.7803V36.835C137.148 31.9875 133.16 28 128.313 28C123.465 28 119.478 31.9875 119.478 36.835V66.7021C119.478 71.6278 123.465 75.6153 128.313 75.6153Z" fill="white"/>
<path d="M78.5473 91.0571C80.2674 92.7771 82.5348 93.559 84.8804 93.559C87.2259 93.559 89.4933 92.699 91.2134 91.0571C94.81 87.4605 94.81 81.9875 91.2134 78.3909L77.7654 65.0993C74.1689 61.5027 68.6958 61.5027 65.0993 65.0993C61.5027 68.6958 61.5027 74.1689 65.0993 77.7654L78.5473 91.0571Z" fill="white"/>
<path d="M78.3909 165.178L65.0993 178.626C61.5027 182.222 61.5027 187.695 65.0993 191.292C66.8194 193.012 69.0868 193.794 71.4323 193.794C73.7779 193.794 76.0453 192.934 77.7654 191.292L91.2134 177.844C94.81 174.247 94.81 168.774 91.2134 165.178C87.6169 161.581 81.9093 161.581 78.3909 165.178Z" fill="white"/>
<path d="M128.313 180.463C123.465 180.463 119.478 184.45 119.478 189.298V219.165C119.478 224.013 123.465 228 128.313 228C133.16 228 137.148 224.013 137.148 219.165V189.298C137.148 184.45 133.16 180.463 128.313 180.463Z" fill="white"/>
<path d="M177.844 165.178C174.247 161.581 168.774 161.581 165.177 165.178C161.581 168.774 161.581 174.247 165.177 177.844L178.625 191.292C180.346 193.012 182.613 193.794 184.958 193.794C187.304 193.794 189.571 192.934 191.292 191.292C194.888 187.695 194.888 182.222 191.292 178.626L177.844 165.178Z" fill="white"/>
<path d="M219.165 119.478H189.298C184.45 119.478 180.463 123.465 180.463 128.313C180.463 133.16 184.45 137.148 189.298 137.148H219.165C224.013 137.148 228 133.16 228 128.313C228 123.465 223.934 119.478 219.165 119.478Z" fill="white"/>
<path d="M171.51 93.7154C173.856 93.7154 176.123 92.8553 177.844 91.2134L191.292 77.7654C194.888 74.1689 194.888 68.6958 191.292 65.0993C187.695 61.5027 182.222 61.5027 178.625 65.0993L165.177 78.5473C161.581 82.1438 161.581 87.6169 165.177 91.2134C166.819 92.8553 169.165 93.7154 171.51 93.7154Z" fill="white"/>
<path d="M127.922 97.5856C114.239 97.5856 102.668 106.812 98.6802 119.243H36.835C31.9875 119.243 28 123.231 28 128.078C28 133.16 31.9875 136.913 36.835 136.913H98.6802C102.433 149.579 114.005 158.571 127.922 158.571C144.732 158.571 158.649 144.888 158.649 127.844C158.649 111.503 144.732 97.5856 127.922 97.5856ZM127.922 141.135C120.729 141.135 115.099 135.428 115.099 128.313C115.099 121.198 120.807 115.49 127.922 115.49C135.037 115.49 140.744 121.198 140.744 128.313C140.744 135.428 135.115 141.135 127.922 141.135Z" fill="white"/>
</svg>
